<svg xmlns="http://www.w3.org/2000/svg" width="1000" height="300" viewBox="0 0 1000 300">
<rect width="100%" height="100%" fill="#ffffff"/>
<g transform="translate(0,0)">
    <rect x="0.5" y="0.5" width="249" height="149" fill="#fff" stroke="#e2d8da"/>
    <g transform="translate(24,26) scale(0.92)">
      <rect x="18" y="3" width="8" height="8" rx="2" fill="#1a1315" opacity="0.28"/>
      <clipPath id="c0"><path d="M8 14 h28 a4 4 0 0 1 4 4 v38 a4 4 0 0 1 -4 4 h-28 a4 4 0 0 1 -4 -4 v-38 a4 4 0 0 1 4 -4 z"/></clipPath>
      <g clip-path="url(#c0)">
        <rect x="4" y="14" width="36" height="46" fill="#1a1315" opacity="0.09"/>
        <rect x="4" y="40.28571428571429" width="36" height="19.714285714285708" fill="#3f8f5e"/>
      </g>
      <path d="M8 14 h28 a4 4 0 0 1 4 4 v38 a4 4 0 0 1 -4 4 h-28 a4 4 0 0 1 -4 -4 v-38 a4 4 0 0 1 4 -4 z" fill="none" stroke="#1a1315" stroke-width="1.5" opacity="0.35"/>
    </g>
    <text x="80" y="40" font-family="system-ui,sans-serif" font-size="10.5" font-weight="700" letter-spacing="1.2" fill="#6b5c60">A+</text>
    <text x="80" y="70" font-family="system-ui,sans-serif" font-size="26" font-weight="700" fill="#1a1315">18</text>
    <text x="80" y="88" font-family="system-ui,sans-serif" font-size="12" fill="#6b5c60">units</text>
    <circle cx="28" cy="116" r="3.5" fill="#3f8f5e"/>
    <text x="38" y="120" font-family="system-ui,sans-serif" font-size="11.5" font-weight="600" fill="#1f1a1b">Healthy</text>
    <rect x="176" y="106" width="28" height="28" rx="8" fill="none" stroke="#d8cfd1"/><text x="190" y="124" text-anchor="middle" font-size="14" fill="#6b5c60">−</text>
    <rect x="210" y="106" width="28" height="28" rx="8" fill="none" stroke="#d8cfd1"/><text x="224" y="124" text-anchor="middle" font-size="14" fill="#6b5c60">+</text>
  </g>
<g transform="translate(250,0)">
    <rect x="0.5" y="0.5" width="249" height="149" fill="#fff" stroke="#e2d8da"/>
    <g transform="translate(24,26) scale(0.92)">
      <rect x="18" y="3" width="8" height="8" rx="2" fill="#1a1315" opacity="0.28"/>
      <clipPath id="c1"><path d="M8 14 h28 a4 4 0 0 1 4 4 v38 a4 4 0 0 1 -4 4 h-28 a4 4 0 0 1 -4 -4 v-38 a4 4 0 0 1 4 -4 z"/></clipPath>
      <g clip-path="url(#c1)">
        <rect x="4" y="14" width="36" height="46" fill="#1a1315" opacity="0.09"/>
        <rect x="4" y="55.61904761904762" width="36" height="4.38095238095238" fill="#8e1230"/>
      </g>
      <path d="M8 14 h28 a4 4 0 0 1 4 4 v38 a4 4 0 0 1 -4 4 h-28 a4 4 0 0 1 -4 -4 v-38 a4 4 0 0 1 4 -4 z" fill="none" stroke="#1a1315" stroke-width="1.5" opacity="0.35"/>
    </g>
    <text x="80" y="40" font-family="system-ui,sans-serif" font-size="10.5" font-weight="700" letter-spacing="1.2" fill="#6b5c60">A−</text>
    <text x="80" y="70" font-family="system-ui,sans-serif" font-size="26" font-weight="700" fill="#8e1230">4</text>
    <text x="80" y="88" font-family="system-ui,sans-serif" font-size="12" fill="#6b5c60">units</text>
    <circle cx="28" cy="116" r="3.5" fill="#8e1230"/>
    <text x="38" y="120" font-family="system-ui,sans-serif" font-size="11.5" font-weight="600" fill="#8e1230">Critical</text>
    <rect x="176" y="106" width="28" height="28" rx="8" fill="none" stroke="#d8cfd1"/><text x="190" y="124" text-anchor="middle" font-size="14" fill="#6b5c60">−</text>
    <rect x="210" y="106" width="28" height="28" rx="8" fill="none" stroke="#d8cfd1"/><text x="224" y="124" text-anchor="middle" font-size="14" fill="#6b5c60">+</text>
  </g>
<g transform="translate(500,0)">
    <rect x="0.5" y="0.5" width="249" height="149" fill="#fff" stroke="#e2d8da"/>
    <g transform="translate(24,26) scale(0.92)">
      <rect x="18" y="3" width="8" height="8" rx="2" fill="#1a1315" opacity="0.28"/>
      <clipPath id="c2"><path d="M8 14 h28 a4 4 0 0 1 4 4 v38 a4 4 0 0 1 -4 4 h-28 a4 4 0 0 1 -4 -4 v-38 a4 4 0 0 1 4 -4 z"/></clipPath>
      <g clip-path="url(#c2)">
        <rect x="4" y="14" width="36" height="46" fill="#1a1315" opacity="0.09"/>
        <rect x="4" y="38.095238095238095" width="36" height="21.904761904761905" fill="#3f8f5e"/>
      </g>
      <path d="M8 14 h28 a4 4 0 0 1 4 4 v38 a4 4 0 0 1 -4 4 h-28 a4 4 0 0 1 -4 -4 v-38 a4 4 0 0 1 4 -4 z" fill="none" stroke="#1a1315" stroke-width="1.5" opacity="0.35"/>
    </g>
    <text x="80" y="40" font-family="system-ui,sans-serif" font-size="10.5" font-weight="700" letter-spacing="1.2" fill="#6b5c60">B+</text>
    <text x="80" y="70" font-family="system-ui,sans-serif" font-size="26" font-weight="700" fill="#1a1315">20</text>
    <text x="80" y="88" font-family="system-ui,sans-serif" font-size="12" fill="#6b5c60">units</text>
    <circle cx="28" cy="116" r="3.5" fill="#3f8f5e"/>
    <text x="38" y="120" font-family="system-ui,sans-serif" font-size="11.5" font-weight="600" fill="#1f1a1b">Healthy</text>
    <rect x="176" y="106" width="28" height="28" rx="8" fill="none" stroke="#d8cfd1"/><text x="190" y="124" text-anchor="middle" font-size="14" fill="#6b5c60">−</text>
    <rect x="210" y="106" width="28" height="28" rx="8" fill="none" stroke="#d8cfd1"/><text x="224" y="124" text-anchor="middle" font-size="14" fill="#6b5c60">+</text>
  </g>
<g transform="translate(750,0)">
    <rect x="0.5" y="0.5" width="249" height="149" fill="#fff" stroke="#e2d8da"/>
    <g transform="translate(24,26) scale(0.92)">
      <rect x="18" y="3" width="8" height="8" rx="2" fill="#1a1315" opacity="0.28"/>
      <clipPath id="c3"><path d="M8 14 h28 a4 4 0 0 1 4 4 v38 a4 4 0 0 1 -4 4 h-28 a4 4 0 0 1 -4 -4 v-38 a4 4 0 0 1 4 -4 z"/></clipPath>
      <g clip-path="url(#c3)">
        <rect x="4" y="14" width="36" height="46" fill="#1a1315" opacity="0.09"/>
        <rect x="4" y="38.095238095238095" width="36" height="21.904761904761905" fill="#3f8f5e"/>
      </g>
      <path d="M8 14 h28 a4 4 0 0 1 4 4 v38 a4 4 0 0 1 -4 4 h-28 a4 4 0 0 1 -4 -4 v-38 a4 4 0 0 1 4 -4 z" fill="none" stroke="#1a1315" stroke-width="1.5" opacity="0.35"/>
    </g>
    <text x="80" y="40" font-family="system-ui,sans-serif" font-size="10.5" font-weight="700" letter-spacing="1.2" fill="#6b5c60">B−</text>
    <text x="80" y="70" font-family="system-ui,sans-serif" font-size="26" font-weight="700" fill="#1a1315">20</text>
    <text x="80" y="88" font-family="system-ui,sans-serif" font-size="12" fill="#6b5c60">units</text>
    <circle cx="28" cy="116" r="3.5" fill="#3f8f5e"/>
    <text x="38" y="120" font-family="system-ui,sans-serif" font-size="11.5" font-weight="600" fill="#1f1a1b">Healthy</text>
    <rect x="176" y="106" width="28" height="28" rx="8" fill="none" stroke="#d8cfd1"/><text x="190" y="124" text-anchor="middle" font-size="14" fill="#6b5c60">−</text>
    <rect x="210" y="106" width="28" height="28" rx="8" fill="none" stroke="#d8cfd1"/><text x="224" y="124" text-anchor="middle" font-size="14" fill="#6b5c60">+</text>
  </g>
<g transform="translate(0,150)">
    <rect x="0.5" y="0.5" width="249" height="149" fill="#fff" stroke="#e2d8da"/>
    <g transform="translate(24,26) scale(0.92)">
      <rect x="18" y="3" width="8" height="8" rx="2" fill="#1a1315" opacity="0.28"/>
      <clipPath id="c4"><path d="M8 14 h28 a4 4 0 0 1 4 4 v38 a4 4 0 0 1 -4 4 h-28 a4 4 0 0 1 -4 -4 v-38 a4 4 0 0 1 4 -4 z"/></clipPath>
      <g clip-path="url(#c4)">
        <rect x="4" y="14" width="36" height="46" fill="#1a1315" opacity="0.09"/>
        <rect x="4" y="14" width="36" height="46" fill="#3f8f5e"/>
      </g>
      <path d="M8 14 h28 a4 4 0 0 1 4 4 v38 a4 4 0 0 1 -4 4 h-28 a4 4 0 0 1 -4 -4 v-38 a4 4 0 0 1 4 -4 z" fill="none" stroke="#1a1315" stroke-width="1.5" opacity="0.35"/>
    </g>
    <text x="80" y="40" font-family="system-ui,sans-serif" font-size="10.5" font-weight="700" letter-spacing="1.2" fill="#6b5c60">AB+</text>
    <text x="80" y="70" font-family="system-ui,sans-serif" font-size="26" font-weight="700" fill="#1a1315">42</text>
    <text x="80" y="88" font-family="system-ui,sans-serif" font-size="12" fill="#6b5c60">units</text>
    <circle cx="28" cy="116" r="3.5" fill="#3f8f5e"/>
    <text x="38" y="120" font-family="system-ui,sans-serif" font-size="11.5" font-weight="600" fill="#1f1a1b">Healthy</text>
    <rect x="176" y="106" width="28" height="28" rx="8" fill="none" stroke="#d8cfd1"/><text x="190" y="124" text-anchor="middle" font-size="14" fill="#6b5c60">−</text>
    <rect x="210" y="106" width="28" height="28" rx="8" fill="none" stroke="#d8cfd1"/><text x="224" y="124" text-anchor="middle" font-size="14" fill="#6b5c60">+</text>
  </g>
<g transform="translate(250,150)">
    <rect x="0.5" y="0.5" width="249" height="149" fill="#fff" stroke="#e2d8da"/>
    <g transform="translate(24,26) scale(0.92)">
      <rect x="18" y="3" width="8" height="8" rx="2" fill="#1a1315" opacity="0.28"/>
      <clipPath id="c5"><path d="M8 14 h28 a4 4 0 0 1 4 4 v38 a4 4 0 0 1 -4 4 h-28 a4 4 0 0 1 -4 -4 v-38 a4 4 0 0 1 4 -4 z"/></clipPath>
      <g clip-path="url(#c5)">
        <rect x="4" y="14" width="36" height="46" fill="#1a1315" opacity="0.09"/>
        <rect x="4" y="56.714285714285715" width="36" height="3.2857142857142847" fill="#8e1230"/>
      </g>
      <path d="M8 14 h28 a4 4 0 0 1 4 4 v38 a4 4 0 0 1 -4 4 h-28 a4 4 0 0 1 -4 -4 v-38 a4 4 0 0 1 4 -4 z" fill="none" stroke="#1a1315" stroke-width="1.5" opacity="0.35"/>
    </g>
    <text x="80" y="40" font-family="system-ui,sans-serif" font-size="10.5" font-weight="700" letter-spacing="1.2" fill="#6b5c60">AB−</text>
    <text x="80" y="70" font-family="system-ui,sans-serif" font-size="26" font-weight="700" fill="#8e1230">3</text>
    <text x="80" y="88" font-family="system-ui,sans-serif" font-size="12" fill="#6b5c60">units</text>
    <circle cx="28" cy="116" r="3.5" fill="#8e1230"/>
    <text x="38" y="120" font-family="system-ui,sans-serif" font-size="11.5" font-weight="600" fill="#8e1230">Critical</text>
    <rect x="176" y="106" width="28" height="28" rx="8" fill="none" stroke="#d8cfd1"/><text x="190" y="124" text-anchor="middle" font-size="14" fill="#6b5c60">−</text>
    <rect x="210" y="106" width="28" height="28" rx="8" fill="none" stroke="#d8cfd1"/><text x="224" y="124" text-anchor="middle" font-size="14" fill="#6b5c60">+</text>
  </g>
<g transform="translate(500,150)">
    <rect x="0.5" y="0.5" width="249" height="149" fill="#fff" stroke="#e2d8da"/>
    <g transform="translate(24,26) scale(0.92)">
      <rect x="18" y="3" width="8" height="8" rx="2" fill="#1a1315" opacity="0.28"/>
      <clipPath id="c6"><path d="M8 14 h28 a4 4 0 0 1 4 4 v38 a4 4 0 0 1 -4 4 h-28 a4 4 0 0 1 -4 -4 v-38 a4 4 0 0 1 4 -4 z"/></clipPath>
      <g clip-path="url(#c6)">
        <rect x="4" y="14" width="36" height="46" fill="#1a1315" opacity="0.09"/>
        <rect x="4" y="39.19047619047619" width="36" height="20.80952380952381" fill="#3f8f5e"/>
      </g>
      <path d="M8 14 h28 a4 4 0 0 1 4 4 v38 a4 4 0 0 1 -4 4 h-28 a4 4 0 0 1 -4 -4 v-38 a4 4 0 0 1 4 -4 z" fill="none" stroke="#1a1315" stroke-width="1.5" opacity="0.35"/>
    </g>
    <text x="80" y="40" font-family="system-ui,sans-serif" font-size="10.5" font-weight="700" letter-spacing="1.2" fill="#6b5c60">O+</text>
    <text x="80" y="70" font-family="system-ui,sans-serif" font-size="26" font-weight="700" fill="#1a1315">19</text>
    <text x="80" y="88" font-family="system-ui,sans-serif" font-size="12" fill="#6b5c60">units</text>
    <circle cx="28" cy="116" r="3.5" fill="#3f8f5e"/>
    <text x="38" y="120" font-family="system-ui,sans-serif" font-size="11.5" font-weight="600" fill="#1f1a1b">Healthy</text>
    <rect x="176" y="106" width="28" height="28" rx="8" fill="none" stroke="#d8cfd1"/><text x="190" y="124" text-anchor="middle" font-size="14" fill="#6b5c60">−</text>
    <rect x="210" y="106" width="28" height="28" rx="8" fill="none" stroke="#d8cfd1"/><text x="224" y="124" text-anchor="middle" font-size="14" fill="#6b5c60">+</text>
  </g>
<g transform="translate(750,150)">
    <rect x="0.5" y="0.5" width="249" height="149" fill="#fff" stroke="#e2d8da"/>
    <g transform="translate(24,26) scale(0.92)">
      <rect x="18" y="3" width="8" height="8" rx="2" fill="#1a1315" opacity="0.28"/>
      <clipPath id="c7"><path d="M8 14 h28 a4 4 0 0 1 4 4 v38 a4 4 0 0 1 -4 4 h-28 a4 4 0 0 1 -4 -4 v-38 a4 4 0 0 1 4 -4 z"/></clipPath>
      <g clip-path="url(#c7)">
        <rect x="4" y="14" width="36" height="46" fill="#1a1315" opacity="0.09"/>
        <rect x="4" y="34.80952380952381" width="36" height="25.19047619047619" fill="#3f8f5e"/>
      </g>
      <path d="M8 14 h28 a4 4 0 0 1 4 4 v38 a4 4 0 0 1 -4 4 h-28 a4 4 0 0 1 -4 -4 v-38 a4 4 0 0 1 4 -4 z" fill="none" stroke="#1a1315" stroke-width="1.5" opacity="0.35"/>
    </g>
    <text x="80" y="40" font-family="system-ui,sans-serif" font-size="10.5" font-weight="700" letter-spacing="1.2" fill="#6b5c60">O−</text>
    <text x="80" y="70" font-family="system-ui,sans-serif" font-size="26" font-weight="700" fill="#1a1315">23</text>
    <text x="80" y="88" font-family="system-ui,sans-serif" font-size="12" fill="#6b5c60">units</text>
    <circle cx="28" cy="116" r="3.5" fill="#3f8f5e"/>
    <text x="38" y="120" font-family="system-ui,sans-serif" font-size="11.5" font-weight="600" fill="#1f1a1b">Healthy</text>
    <rect x="176" y="106" width="28" height="28" rx="8" fill="none" stroke="#d8cfd1"/><text x="190" y="124" text-anchor="middle" font-size="14" fill="#6b5c60">−</text>
    <rect x="210" y="106" width="28" height="28" rx="8" fill="none" stroke="#d8cfd1"/><text x="224" y="124" text-anchor="middle" font-size="14" fill="#6b5c60">+</text>
  </g>
</svg>